<svg viewBox="0 0 48 48" fill="none" xmlns="http://www.w3.org/2000/svg">
  <rect width="48" height="48" rx="10" fill="#15422E"/>
  <path d="M24 42V22" stroke="#22D3C5" stroke-width="3" stroke-linecap="round"/>
  <circle cx="24" cy="42" r="2.6" fill="#D99A2B"/>
  <path d="M24 26C24 26 12 26 8 16C8 16 20 12 24 22C24 22 24 24 24 26Z" fill="#1B5E3F"/>
  <path d="M24 22C24 22 28 8 40 6C40 6 41 20 26 24C26 24 24 24 24 22Z" fill="#1B5E3F"/>
  <path d="M11 18.5L20 22" stroke="#5FE3D8" stroke-width="1.4" stroke-linecap="round"/>
  <path d="M36 9.5L27 19" stroke="#5FE3D8" stroke-width="1.4" stroke-linecap="round"/>
  <circle cx="11" cy="18.5" r="1.8" fill="#22D3C5"/>
  <circle cx="36" cy="9.5" r="1.8" fill="#22D3C5"/>
  <circle cx="24" cy="22" r="2.4" fill="#F7F5EF" stroke="#22D3C5" stroke-width="1.6"/>
</svg>
